# This file uses centimeters as units for non-parametric coordinates.

mtllib Table_Texture.mtl
g default
v 2.072207 2.901440 -2.085207
v 2.688237 2.901440 -2.085207
v 2.173860 3.537813 -2.220224
v 2.586584 3.537813 -2.220224
v 2.173860 3.537813 -2.586585
v 2.586584 3.537813 -2.586585
v 2.072207 2.901440 -2.721601
v 2.688237 2.901440 -2.721601
v 2.062035 2.901440 -2.721591
v 2.698408 2.901440 -2.721591
v 2.698408 2.901440 -2.085218
v 2.062035 2.901440 -2.085218
v 2.164436 2.801949 -2.711787
v 2.596008 2.801949 -2.711787
v 2.596008 2.801949 -2.095021
v 2.164436 2.801949 -2.095021
v 2.205307 0.405401 -2.670990
v 2.555136 0.405401 -2.670990
v 2.555136 0.405401 -2.135818
v 2.205307 0.405401 -2.135818
v 2.205307 -0.012433 -2.563503
v 2.555136 -0.012433 -2.563503
v 2.555136 -0.012433 -2.243305
v 2.205307 -0.012433 -2.243305
v 2.072207 3.219626 -2.085207
v 2.072207 3.219626 -2.721601
v 2.688237 3.219626 -2.721601
v 2.688237 3.219626 -2.085207
v -2.688237 2.901440 -2.085207
v -2.072207 2.901440 -2.085207
v -2.586584 3.537813 -2.220224
v -2.173860 3.537813 -2.220224
v -2.586584 3.537813 -2.586585
v -2.173860 3.537813 -2.586585
v -2.688237 2.901440 -2.721601
v -2.072207 2.901440 -2.721601
v -2.698409 2.901440 -2.721591
v -2.062036 2.901440 -2.721591
v -2.062036 2.901440 -2.085218
v -2.698409 2.901440 -2.085218
v -2.596008 2.801949 -2.711787
v -2.164436 2.801949 -2.711787
v -2.164436 2.801949 -2.095021
v -2.596008 2.801949 -2.095021
v -2.555137 0.405401 -2.670990
v -2.205307 0.405401 -2.670990
v -2.205307 0.405401 -2.135818
v -2.555137 0.405401 -2.135818
v -2.555137 -0.012433 -2.563503
v -2.205307 -0.012433 -2.563503
v -2.205307 -0.012433 -2.243305
v -2.555137 -0.012433 -2.243305
v -2.688237 3.219626 -2.085207
v -2.688237 3.219626 -2.721601
v -2.072207 3.219626 -2.721601
v -2.072207 3.219626 -2.085207
v -2.688237 2.901440 2.713763
v -2.072207 2.901440 2.713763
v -2.586584 3.537813 2.578747
v -2.173860 3.537813 2.578747
v -2.586584 3.537813 2.212386
v -2.173860 3.537813 2.212386
v -2.688237 2.901440 2.077369
v -2.072207 2.901440 2.077369
v -2.698409 2.901440 2.077380
v -2.062036 2.901440 2.077380
v -2.062036 2.901440 2.713753
v -2.698409 2.901440 2.713753
v -2.596008 2.801949 2.087183
v -2.164436 2.801949 2.087183
v -2.164436 2.801949 2.703949
v -2.596008 2.801949 2.703949
v -2.555137 0.405401 2.127981
v -2.205307 0.405401 2.127981
v -2.205307 0.405401 2.663152
v -2.555137 0.405401 2.663152
v -2.555137 -0.012433 2.235467
v -2.205307 -0.012433 2.235467
v -2.205307 -0.012433 2.555666
v -2.555137 -0.012433 2.555666
v -2.688237 3.219626 2.713763
v -2.688237 3.219626 2.077369
v -2.072207 3.219626 2.077369
v -2.072207 3.219626 2.713763
v 2.080468 2.900753 2.713763
v 2.696497 2.900753 2.713763
v 2.182120 3.537126 2.578747
v 2.594845 3.537126 2.578747
v 2.182120 3.537126 2.212386
v 2.594845 3.537126 2.212386
v 2.080468 2.900753 2.077369
v 2.696497 2.900753 2.077369
v 2.070296 2.900753 2.077380
v 2.706669 2.900753 2.077380
v 2.706669 2.900753 2.713753
v 2.070296 2.900753 2.713753
v 2.172696 2.801262 2.087183
v 2.604269 2.801262 2.087183
v 2.604269 2.801262 2.703949
v 2.172696 2.801262 2.703949
v 2.213568 0.404714 2.127981
v 2.563397 0.404714 2.127981
v 2.563397 0.404714 2.663152
v 2.213568 0.404714 2.663152
v 2.213568 -0.013120 2.235467
v 2.563397 -0.013120 2.235467
v 2.563397 -0.013120 2.555666
v 2.213568 -0.013120 2.555666
v 2.080468 3.218940 2.713763
v 2.080468 3.218940 2.077369
v 2.696497 3.218940 2.077369
v 2.696497 3.218940 2.713763
vt 0.342930 0.362582
vt 0.373155 0.364328
vt 0.374725 0.386299
vt 0.343112 0.384256
vt 0.307691 0.381833
vt 0.408779 0.383683
vt 0.408461 0.362354
vt 0.305482 0.364120
vt 0.305488 0.363523
vt 0.373603 0.364299
vt 0.342387 0.362408
vt 0.304812 0.354991
vt 0.369808 0.356045
vt 0.342718 0.354858
vt 0.312288 0.213643
vt 0.371377 0.199265
vt 0.347484 0.201309
vt 0.312988 0.192009
vt 0.370869 0.171304
vt 0.336762 0.177672
vt 0.339758 0.407942
vt 0.313214 0.402564
vt 0.376938 0.409887
vt 0.442148 0.376537
vt 0.440664 0.358502
vt 0.441167 0.358430
vt 0.407957 0.362286
vt 0.438566 0.352656
vt 0.408695 0.355111
vt 0.428665 0.208656
vt 0.405893 0.203698
vt 0.401203 0.172991
vt 0.427264 0.181430
vt 0.442080 0.391429
vt 0.410466 0.405429
vt 0.398437 0.048930
vt 0.445310 0.048930
vt 0.445310 0.098861
vt 0.398437 0.098861
vt 0.338763 0.431585
vt 0.409281 0.431585
vt 0.409281 0.501822
vt 0.338763 0.501822
vt 0.188836 0.368596
vt 0.218999 0.371240
vt 0.219954 0.393248
vt 0.188412 0.390267
vt 0.153073 0.386792
vt 0.254067 0.391645
vt 0.254346 0.370315
vt 0.151360 0.369022
vt 0.151383 0.368425
vt 0.219448 0.371225
vt 0.188298 0.368407
vt 0.150945 0.359876
vt 0.215885 0.362861
vt 0.188840 0.360869
vt 0.162370 0.218809
vt 0.221837 0.206192
vt 0.197896 0.207525
vt 0.163675 0.197205
vt 0.222110 0.178228
vt 0.187840 0.183580
vt 0.184396 0.413844
vt 0.158014 0.407679
vt 0.221507 0.416893
vt 0.287622 0.385493
vt 0.286643 0.367422
vt 0.287148 0.367365
vt 0.253843 0.370233
vt 0.284709 0.361516
vt 0.254782 0.363082
vt 0.278838 0.217282
vt 0.256215 0.211649
vt 0.252384 0.180815
vt 0.278199 0.190026
vt 0.287138 0.400378
vt 0.255145 0.413433
vt 0.294734 0.045940
vt 0.347610 0.045940
vt 0.347610 0.100409
vt 0.294734 0.100409
vt 0.182563 0.425727
vt 0.259562 0.425727
vt 0.259562 0.503389
vt 0.182563 0.503389
vt 0.511041 0.359022
vt 0.541283 0.361870
vt 0.542020 0.383921
vt 0.510420 0.380729
vt 0.474920 0.377122
vt 0.576186 0.382679
vt 0.576653 0.361294
vt 0.473412 0.359103
vt 0.473447 0.358498
vt 0.541738 0.361860
vt 0.510504 0.358845
vt 0.473182 0.349868
vt 0.538273 0.353442
vt 0.511219 0.351302
vt 0.485774 0.207560
vt 0.545234 0.195930
vt 0.521376 0.196999
vt 0.487356 0.185688
vt 0.545870 0.167888
vt 0.511687 0.172738
vt 0.506272 0.404294
vt 0.479915 0.398281
vt 0.543310 0.407540
vt 0.609990 0.377019
vt 0.609136 0.358717
vt 0.609646 0.358664
vt 0.576144 0.361220
vt 0.607084 0.352736
vt 0.577244 0.354030
vt 0.602137 0.207085
vt 0.579562 0.201475
vt 0.575978 0.170604
vt 0.601705 0.179588
vt 0.609188 0.392295
vt 0.576944 0.404530
vt 0.515643 0.047505
vt 0.565918 0.047505
vt 0.565918 0.097523
vt 0.515643 0.097523
vt 0.512282 0.430244
vt 0.577120 0.430244
vt 0.577120 0.498567
vt 0.512282 0.498567
vt 0.696828 0.357797
vt 0.726966 0.360731
vt 0.727721 0.382748
vt 0.696207 0.379462
vt 0.660901 0.375647
vt 0.761847 0.381474
vt 0.762320 0.360148
vt 0.659351 0.357860
vt 0.659378 0.357264
vt 0.727415 0.360720
vt 0.696292 0.357602
vt 0.659018 0.348711
vt 0.723929 0.352322
vt 0.696902 0.350070
vt 0.671723 0.207761
vt 0.731303 0.195718
vt 0.707351 0.196820
vt 0.673225 0.186170
vt 0.731830 0.167758
vt 0.697513 0.172779
vt 0.691978 0.403000
vt 0.665653 0.396581
vt 0.729060 0.406406
vt 0.795457 0.375646
vt 0.794642 0.357566
vt 0.795147 0.357514
vt 0.761818 0.360061
vt 0.792761 0.351642
vt 0.762821 0.352919
vt 0.788200 0.207357
vt 0.765629 0.201507
vt 0.762079 0.170637
vt 0.787809 0.180096
vt 0.794838 0.390525
vt 0.762728 0.403271
vt 0.695325 0.431285
vt 0.764374 0.431285
vt 0.764374 0.499608
vt 0.695325 0.499608
vt 0.640696 0.043903
vt 0.686158 0.043903
vt 0.686158 0.091250
vt 0.640696 0.091250
vn 0.000000 0.000000 1.000000
vn 0.000000 0.000000 1.000000
vn 0.000000 0.169698 0.985496
vn 0.000000 0.169698 0.985496
vn 0.000000 1.000000 0.000000
vn 0.000000 1.000000 0.000000
vn 0.000000 1.000000 0.000000
vn 0.000000 1.000000 0.000000
vn 0.000000 0.169698 -0.985496
vn 0.000000 0.169698 -0.985496
vn 0.000000 0.000000 -1.000000
vn 0.000000 0.000000 -1.000000
vn 0.000000 -1.000000 0.000000
vn 0.000000 -1.000000 0.000000
vn 0.000000 -1.000000 0.000000
vn 0.000000 -1.000000 0.000000
vn 1.000000 0.000000 0.000000
vn 1.000000 0.000000 0.000000
vn 0.992971 0.118362 0.000000
vn 0.992971 0.118362 0.000000
vn -1.000000 0.000000 0.000000
vn -1.000000 0.000000 0.000000
vn -0.992971 0.118362 0.000000
vn -0.992971 0.118362 0.000000
vn 0.000000 -0.999998 0.002031
vn 0.000000 -0.999998 0.002031
vn 0.000000 -0.999998 0.002031
vn 0.000000 -0.999998 0.002031
vn 0.000000 1.000000 0.000000
vn 0.000000 1.000000 0.000000
vn 0.000000 1.000000 0.000000
vn 0.000000 1.000000 0.000000
vn 0.000000 -0.999963 0.008594
vn 0.000000 -0.999963 0.008594
vn 0.000000 -0.999963 0.008594
vn 0.000000 -0.999963 0.008594
vn 0.000000 1.000000 0.000000
vn 0.000000 1.000000 0.000000
vn 0.000000 1.000000 0.000000
vn 0.000000 1.000000 0.000000
vn 0.000000 -0.098064 -0.995180
vn 0.000000 -0.098064 -0.995180
vn 0.000000 -0.023505 -0.999724
vn 0.000000 -0.023505 -0.999724
vn 0.696848 -0.717219 0.000000
vn 0.696848 -0.717219 0.000000
vn 0.998016 -0.062965 0.000000
vn 0.998016 -0.062965 0.000000
vn 0.000000 -0.098059 0.995181
vn 0.000000 -0.098059 0.995181
vn 0.000000 -0.023505 0.999724
vn 0.000000 -0.023505 0.999724
vn -0.696847 -0.717220 0.000000
vn -0.696847 -0.717220 0.000000
vn -0.998016 -0.062965 0.000000
vn -0.998016 -0.062965 0.000000
vn 0.000000 -0.049100 -0.998794
vn 0.000000 -0.049100 -0.998794
vn 0.999882 -0.015397 0.000000
vn 0.999882 -0.015397 0.000000
vn 0.000000 -0.049100 0.998794
vn 0.000000 -0.049100 0.998794
vn -0.999882 -0.015397 0.000000
vn -0.999882 -0.015397 0.000000
vn 0.000000 -0.249136 -0.968468
vn 0.000000 -0.249136 -0.968468
vn 1.000000 0.000001 0.000000
vn 1.000000 0.000001 0.000000
vn 0.000000 -0.249136 0.968469
vn 0.000000 -0.249136 0.968469
vn -1.000000 0.000000 0.000000
vn -1.000000 0.000000 0.000000
vn -0.952569 0.304322 0.000000
vn -0.952569 0.304322 0.000000
vn 0.000000 0.390620 -0.920552
vn 0.000000 0.390620 -0.920552
vn 0.952569 0.304322 0.000000
vn 0.952569 0.304322 0.000000
vn 0.000000 0.390620 0.920552
vn 0.000000 0.390620 0.920552
vn 0.000000 0.000000 1.000000
vn 0.000000 0.000000 1.000000
vn 0.000000 0.169698 0.985496
vn 0.000000 0.169698 0.985496
vn 0.000000 1.000000 0.000000
vn 0.000000 1.000000 0.000000
vn 0.000000 1.000000 0.000000
vn 0.000000 1.000000 0.000000
vn 0.000000 0.169698 -0.985496
vn 0.000000 0.169698 -0.985496
vn 0.000000 0.000000 -1.000000
vn 0.000000 0.000000 -1.000000
vn 0.000000 -1.000000 0.000000
vn 0.000000 -1.000000 0.000000
vn 0.000000 -1.000000 0.000000
vn 0.000000 -1.000000 0.000000
vn 1.000000 0.000000 0.000000
vn 1.000000 0.000000 0.000000
vn 0.992971 0.118362 0.000000
vn 0.992971 0.118362 0.000000
vn -1.000000 0.000000 0.000000
vn -1.000000 0.000000 0.000000
vn -0.992971 0.118362 0.000000
vn -0.992971 0.118362 0.000000
vn 0.000000 -0.999998 0.002031
vn 0.000000 -0.999998 0.002031
vn 0.000000 -0.999998 0.002031
vn 0.000000 -0.999998 0.002031
vn 0.000000 1.000000 0.000000
vn 0.000000 1.000000 0.000000
vn 0.000000 1.000000 0.000000
vn 0.000000 1.000000 0.000000
vn 0.000000 -0.999963 0.008594
vn 0.000000 -0.999963 0.008594
vn 0.000000 -0.999963 0.008594
vn 0.000000 -0.999963 0.008594
vn 0.000000 1.000000 0.000000
vn 0.000000 1.000000 0.000000
vn 0.000000 1.000000 0.000000
vn 0.000000 1.000000 0.000000
vn 0.000000 -0.098064 -0.995180
vn 0.000000 -0.098064 -0.995180
vn 0.000000 -0.023505 -0.999724
vn 0.000000 -0.023505 -0.999724
vn 0.696848 -0.717219 0.000000
vn 0.696848 -0.717219 0.000000
vn 0.998016 -0.062965 0.000000
vn 0.998016 -0.062965 0.000000
vn 0.000000 -0.098059 0.995181
vn 0.000000 -0.098059 0.995181
vn 0.000000 -0.023505 0.999724
vn 0.000000 -0.023505 0.999724
vn -0.696846 -0.717221 0.000000
vn -0.696846 -0.717221 0.000000
vn -0.998016 -0.062965 0.000000
vn -0.998016 -0.062965 0.000000
vn 0.000000 -0.049100 -0.998794
vn 0.000000 -0.049100 -0.998794
vn 0.999882 -0.015396 0.000000
vn 0.999882 -0.015397 0.000000
vn 0.000000 -0.049100 0.998794
vn 0.000000 -0.049100 0.998794
vn -0.999882 -0.015397 0.000000
vn -0.999882 -0.015397 0.000000
vn 0.000000 -0.249136 -0.968468
vn 0.000000 -0.249136 -0.968468
vn 1.000000 0.000000 0.000000
vn 1.000000 0.000000 0.000000
vn 0.000000 -0.249136 0.968469
vn 0.000000 -0.249136 0.968469
vn -1.000000 -0.000000 0.000000
vn -1.000000 -0.000000 0.000000
vn -0.952569 0.304321 0.000000
vn -0.952569 0.304321 0.000000
vn 0.000000 0.390620 -0.920552
vn 0.000000 0.390620 -0.920552
vn 0.952569 0.304322 0.000000
vn 0.952569 0.304322 0.000000
vn 0.000000 0.390620 0.920552
vn 0.000000 0.390620 0.920552
vn 0.000000 0.000000 1.000000
vn 0.000000 0.000000 1.000000
vn 0.000000 0.169698 0.985496
vn 0.000000 0.169698 0.985496
vn 0.000000 1.000000 0.000000
vn 0.000000 1.000000 0.000000
vn 0.000000 1.000000 0.000000
vn 0.000000 1.000000 0.000000
vn 0.000000 0.169698 -0.985496
vn 0.000000 0.169698 -0.985496
vn 0.000000 0.000000 -1.000000
vn 0.000000 0.000000 -1.000000
vn 0.000000 -1.000000 0.000000
vn 0.000000 -1.000000 0.000000
vn 0.000000 -1.000000 0.000000
vn 0.000000 -1.000000 0.000000
vn 1.000000 0.000000 0.000000
vn 1.000000 0.000000 0.000000
vn 0.992971 0.118362 0.000000
vn 0.992971 0.118362 0.000000
vn -1.000000 0.000000 0.000000
vn -1.000000 0.000000 0.000000
vn -0.992971 0.118362 0.000000
vn -0.992971 0.118362 0.000000
vn 0.000000 -0.999998 0.002031
vn 0.000000 -0.999998 0.002031
vn 0.000000 -0.999998 0.002031
vn 0.000000 -0.999998 0.002031
vn 0.000000 1.000000 0.000000
vn 0.000000 1.000000 0.000000
vn 0.000000 1.000000 0.000000
vn 0.000000 1.000000 0.000000
vn 0.000000 -0.999963 0.008594
vn 0.000000 -0.999963 0.008594
vn 0.000000 -0.999963 0.008594
vn 0.000000 -0.999963 0.008594
vn 0.000000 1.000000 0.000000
vn 0.000000 1.000000 0.000000
vn 0.000000 1.000000 0.000000
vn 0.000000 1.000000 0.000000
vn 0.000000 -0.098064 -0.995180
vn 0.000000 -0.098064 -0.995180
vn 0.000000 -0.023505 -0.999724
vn 0.000000 -0.023505 -0.999724
vn 0.696848 -0.717219 0.000000
vn 0.696848 -0.717219 0.000000
vn 0.998016 -0.062965 0.000000
vn 0.998016 -0.062965 0.000000
vn 0.000000 -0.098059 0.995181
vn 0.000000 -0.098059 0.995181
vn 0.000000 -0.023505 0.999724
vn 0.000000 -0.023505 0.999724
vn -0.696846 -0.717221 0.000000
vn -0.696846 -0.717221 0.000000
vn -0.998016 -0.062965 0.000000
vn -0.998016 -0.062965 0.000000
vn 0.000000 -0.049100 -0.998794
vn 0.000000 -0.049100 -0.998794
vn 0.999882 -0.015396 0.000000
vn 0.999882 -0.015396 0.000000
vn 0.000000 -0.049100 0.998794
vn 0.000000 -0.049100 0.998794
vn -0.999882 -0.015397 0.000000
vn -0.999882 -0.015397 0.000000
vn 0.000000 -0.249136 -0.968468
vn 0.000000 -0.249136 -0.968468
vn 1.000000 0.000000 0.000000
vn 1.000000 0.000000 0.000000
vn 0.000000 -0.249136 0.968469
vn 0.000000 -0.249136 0.968469
vn -1.000000 -0.000000 0.000000
vn -1.000000 -0.000000 0.000000
vn -0.952569 0.304321 0.000000
vn -0.952569 0.304321 0.000000
vn 0.000000 0.390620 -0.920552
vn 0.000000 0.390620 -0.920552
vn 0.952569 0.304322 0.000000
vn 0.952569 0.304322 0.000000
vn 0.000000 0.390620 0.920552
vn 0.000000 0.390620 0.920552
vn 0.000000 0.000000 1.000000
vn 0.000000 0.000000 1.000000
vn 0.000000 0.169698 0.985496
vn 0.000000 0.169698 0.985496
vn 0.000000 1.000000 0.000000
vn 0.000000 1.000000 0.000000
vn 0.000000 1.000000 0.000000
vn 0.000000 1.000000 0.000000
vn 0.000000 0.169698 -0.985496
vn 0.000000 0.169698 -0.985496
vn 0.000000 0.000000 -1.000000
vn 0.000000 0.000000 -1.000000
vn 0.000000 -1.000000 0.000000
vn 0.000000 -1.000000 0.000000
vn 0.000000 -1.000000 0.000000
vn 0.000000 -1.000000 0.000000
vn 1.000000 0.000000 0.000000
vn 1.000000 0.000000 0.000000
vn 0.992971 0.118362 0.000000
vn 0.992971 0.118362 0.000000
vn -1.000000 0.000000 0.000000
vn -1.000000 0.000000 0.000000
vn -0.992971 0.118362 0.000000
vn -0.992971 0.118362 0.000000
vn 0.000000 -0.999986 -0.005222
vn 0.000000 -0.999986 -0.005222
vn 0.000000 -0.999986 -0.005222
vn 0.000000 -0.999986 -0.005222
vn 0.000000 1.000000 0.000000
vn 0.000000 1.000000 0.000000
vn 0.000000 1.000000 0.000000
vn 0.000000 1.000000 0.000000
vn 0.000000 -0.999998 -0.002218
vn 0.000000 -0.999998 -0.002218
vn 0.000000 -0.999998 -0.002218
vn 0.000000 -0.999998 -0.002218
vn 0.000000 1.000000 0.000000
vn 0.000000 1.000000 0.000000
vn 0.000000 1.000000 0.000000
vn 0.000000 1.000000 0.000000
vn 0.000000 -0.098064 -0.995180
vn 0.000000 -0.098064 -0.995180
vn 0.000000 -0.023505 -0.999724
vn 0.000000 -0.023505 -0.999724
vn 0.696847 -0.717220 0.000000
vn 0.696847 -0.717220 0.000000
vn 0.998016 -0.062965 0.000000
vn 0.998016 -0.062965 0.000000
vn 0.000000 -0.098059 0.995181
vn 0.000000 -0.098059 0.995181
vn 0.000000 -0.023505 0.999724
vn 0.000000 -0.023505 0.999724
vn -0.696846 -0.717221 0.000000
vn -0.696846 -0.717221 0.000000
vn -0.998016 -0.062965 0.000000
vn -0.998016 -0.062965 0.000000
vn 0.000000 -0.049100 -0.998794
vn 0.000000 -0.049100 -0.998794
vn 0.999882 -0.015397 0.000000
vn 0.999882 -0.015397 0.000000
vn 0.000000 -0.049100 0.998794
vn 0.000000 -0.049100 0.998794
vn -0.999882 -0.015397 0.000000
vn -0.999882 -0.015397 0.000000
vn 0.000000 -0.249136 -0.968468
vn 0.000000 -0.249136 -0.968468
vn 1.000000 -0.000001 0.000000
vn 1.000000 -0.000001 0.000000
vn 0.000000 -0.249136 0.968469
vn 0.000000 -0.249136 0.968469
vn -1.000000 -0.000000 0.000000
vn -1.000000 -0.000000 0.000000
vn -0.952569 0.304321 0.000000
vn -0.952569 0.304321 0.000000
vn 0.000000 0.390620 -0.920552
vn 0.000000 0.390620 -0.920552
vn 0.952569 0.304322 0.000000
vn 0.952569 0.304322 0.000000
vn 0.000000 0.390620 0.920552
vn 0.000000 0.390620 0.920552
s 1
g TableLegs
usemtl lambert1SG
f 1/1/1 2/2/2 28/3/3 25/4/4
s off
f 3/40/5 4/41/6 6/42/7 5/43/8
s 2
f 26/24/9 27/6/10 8/7/11 7/25/12
s off
f 21/36/13 22/37/14 23/38/15 24/39/16
s 3
f 2/2/17 8/7/18 27/6/19 28/3/20
s 4
f 7/8/21 1/1/22 25/4/23 26/5/24
s off
f 7/25/25 8/7/26 10/27/27 9/26/28
f 8/7/29 2/2/30 11/10/31 10/27/32
f 2/2/33 1/1/34 12/11/35 11/10/36
f 1/1/37 7/8/38 9/9/39 12/11/40
s 5
f 9/26/41 10/27/42 14/29/43 13/28/44
s 6
f 10/27/45 11/10/46 15/13/47 14/29/48
s 7
f 11/10/49 12/11/50 16/14/51 15/13/52
s 8
f 12/11/53 9/9/54 13/12/55 16/14/56
s 5
f 13/28/44 14/29/43 18/31/57 17/30/58
s 6
f 14/29/48 15/13/47 19/16/59 18/31/60
s 7
f 15/13/52 16/14/51 20/17/61 19/16/62
s 8
f 16/14/56 13/12/55 17/15/63 20/17/64
s 5
f 17/30/58 18/31/57 22/32/65 21/33/66
s 6
f 18/31/60 19/16/59 23/19/67 22/32/68
s 7
f 19/16/62 20/17/61 24/20/69 23/19/70
s 8
f 20/17/64 17/15/63 21/18/71 24/20/72
s 4
f 26/5/24 25/4/23 3/21/73 5/22/74
s 2
f 5/34/75 6/35/76 27/6/10 26/24/9
s 3
f 28/3/20 27/6/19 6/35/77 4/23/78
s 1
f 25/4/4 28/3/3 4/23/79 3/21/80
s 9
f 29/130/81 30/131/82 56/132/83 53/133/84
s off
f 31/165/85 32/166/86 34/167/87 33/168/88
s 10
f 54/153/89 55/135/90 36/136/91 35/154/92
s off
f 49/169/93 50/170/94 51/171/95 52/172/96
s 11
f 30/131/97 36/136/98 55/135/99 56/132/100
s 12
f 35/137/101 29/130/102 53/133/103 54/134/104
s off
f 35/154/105 36/136/106 38/156/107 37/155/108
f 36/136/109 30/131/110 39/139/111 38/156/112
f 30/131/113 29/130/114 40/140/115 39/139/116
f 29/130/117 35/137/118 37/138/119 40/140/120
s 13
f 37/155/121 38/156/122 42/158/123 41/157/124
s 14
f 38/156/125 39/139/126 43/142/127 42/158/128
s 15
f 39/139/129 40/140/130 44/143/131 43/142/132
s 16
f 40/140/133 37/138/134 41/141/135 44/143/136
s 13
f 41/157/124 42/158/123 46/160/137 45/159/138
s 14
f 42/158/128 43/142/127 47/145/139 46/160/140
s 15
f 43/142/132 44/143/131 48/146/141 47/145/142
s 16
f 44/143/136 41/141/135 45/144/143 48/146/144
s 13
f 45/159/138 46/160/137 50/161/145 49/162/146
s 14
f 46/160/140 47/145/139 51/148/147 50/161/148
s 15
f 47/145/142 48/146/141 52/149/149 51/148/150
s 16
f 48/146/144 45/144/143 49/147/151 52/149/152
s 12
f 54/134/104 53/133/103 31/150/153 33/151/154
s 10
f 33/163/155 34/164/156 55/135/90 54/153/89
s 11
f 56/132/100 55/135/99 34/164/157 32/152/158
s 9
f 53/133/84 56/132/83 32/152/159 31/150/160
s 17
f 57/87/161 58/88/162 84/89/163 81/90/164
s off
f 59/126/165 60/127/166 62/128/167 61/129/168
s 18
f 82/110/169 83/92/170 64/93/171 63/111/172
s off
f 77/122/173 78/123/174 79/124/175 80/125/176
s 19
f 58/88/177 64/93/178 83/92/179 84/89/180
s 20
f 63/94/181 57/87/182 81/90/183 82/91/184
s off
f 63/111/185 64/93/186 66/113/187 65/112/188
f 64/93/189 58/88/190 67/96/191 66/113/192
f 58/88/193 57/87/194 68/97/195 67/96/196
f 57/87/197 63/94/198 65/95/199 68/97/200
s 21
f 65/112/201 66/113/202 70/115/203 69/114/204
s 22
f 66/113/205 67/96/206 71/99/207 70/115/208
s 23
f 67/96/209 68/97/210 72/100/211 71/99/212
s 24
f 68/97/213 65/95/214 69/98/215 72/100/216
s 21
f 69/114/204 70/115/203 74/117/217 73/116/218
s 22
f 70/115/208 71/99/207 75/102/219 74/117/220
s 23
f 71/99/212 72/100/211 76/103/221 75/102/222
s 24
f 72/100/216 69/98/215 73/101/223 76/103/224
s 21
f 73/116/218 74/117/217 78/118/225 77/119/226
s 22
f 74/117/220 75/102/219 79/105/227 78/118/228
s 23
f 75/102/222 76/103/221 80/106/229 79/105/230
s 24
f 76/103/224 73/101/223 77/104/231 80/106/232
s 20
f 82/91/184 81/90/183 59/107/233 61/108/234
s 18
f 61/120/235 62/121/236 83/92/170 82/110/169
s 19
f 84/89/180 83/92/179 62/121/237 60/109/238
s 17
f 81/90/164 84/89/163 60/109/239 59/107/240
s 25
f 85/44/241 86/45/242 112/46/243 109/47/244
s off
f 87/83/245 88/84/246 90/85/247 89/86/248
s 26
f 110/67/249 111/49/250 92/50/251 91/68/252
s off
f 105/79/253 106/80/254 107/81/255 108/82/256
s 27
f 86/45/257 92/50/258 111/49/259 112/46/260
s 28
f 91/51/261 85/44/262 109/47/263 110/48/264
s off
f 91/68/265 92/50/266 94/70/267 93/69/268
f 92/50/269 86/45/270 95/53/271 94/70/272
f 86/45/273 85/44/274 96/54/275 95/53/276
f 85/44/277 91/51/278 93/52/279 96/54/280
s 29
f 93/69/281 94/70/282 98/72/283 97/71/284
s 30
f 94/70/285 95/53/286 99/56/287 98/72/288
s 31
f 95/53/289 96/54/290 100/57/291 99/56/292
s 32
f 96/54/293 93/52/294 97/55/295 100/57/296
s 29
f 97/71/284 98/72/283 102/74/297 101/73/298
s 30
f 98/72/288 99/56/287 103/59/299 102/74/300
s 31
f 99/56/292 100/57/291 104/60/301 103/59/302
s 32
f 100/57/296 97/55/295 101/58/303 104/60/304
s 29
f 101/73/298 102/74/297 106/75/305 105/76/306
s 30
f 102/74/300 103/59/299 107/62/307 106/75/308
s 31
f 103/59/302 104/60/301 108/63/309 107/62/310
s 32
f 104/60/304 101/58/303 105/61/311 108/63/312
s 28
f 110/48/264 109/47/263 87/64/313 89/65/314
s 26
f 89/77/315 90/78/316 111/49/250 110/67/249
s 27
f 112/46/260 111/49/259 90/78/317 88/66/318
s 25
f 109/47/244 112/46/243 88/66/319 87/64/320
g default
v -2.586584 3.537813 2.586584
v 2.586584 3.537813 2.586584
v -2.586584 3.713784 2.586584
v 2.586584 3.713784 2.586584
v -2.586584 3.713784 -2.586584
v 2.586584 3.713784 -2.586584
v -2.586584 3.537813 -2.586584
v 2.586584 3.537813 -2.586584
v -1.937758 3.361842 1.937758
v 1.937758 3.361842 1.937758
v -1.937758 3.537813 1.937758
v 1.937758 3.537813 1.937758
v -1.937758 3.537813 -1.937758
v 1.937758 3.537813 -1.937758
v -1.937758 3.361842 -1.937758
v 1.937758 3.361842 -1.937758
vt 0.042550 0.688975
vt 0.350299 0.689229
vt 0.343697 0.695679
vt 0.049567 0.695001
vt 0.343113 0.966557
vt 0.049013 0.965852
vt 0.350117 0.972595
vt 0.042428 0.972315
vt 0.392604 0.716719
vt 0.626711 0.716719
vt 0.626711 0.953569
vt 0.392604 0.953569
vt 0.930254 0.726040
vt 0.713726 0.726018
vt 0.706788 0.719305
vt 0.936690 0.718770
vt 0.937548 0.959418
vt 0.707649 0.959954
vt 0.714086 0.952685
vt 0.930610 0.952703
vn 0.000000 0.000000 1.000000
vn 0.000000 0.000000 1.000000
vn 0.000000 0.000000 1.000000
vn 0.000000 0.000000 1.000000
vn 0.000000 1.000000 0.000000
vn 0.000000 1.000000 0.000000
vn 0.000000 1.000000 0.000000
vn 0.000000 1.000000 0.000000
vn 0.000000 0.000000 -1.000000
vn 0.000000 0.000000 -1.000000
vn 0.000000 0.000000 -1.000000
vn 0.000000 0.000000 -1.000000
vn 0.000000 -1.000000 0.000000
vn 0.000000 -1.000000 0.000000
vn 0.000000 -1.000000 0.000000
vn 0.000000 -1.000000 0.000000
vn 1.000000 0.000000 0.000000
vn 1.000000 0.000000 0.000000
vn 1.000000 0.000000 0.000000
vn 1.000000 0.000000 0.000000
vn -1.000000 0.000000 0.000000
vn -1.000000 0.000000 0.000000
vn -1.000000 0.000000 0.000000
vn -1.000000 0.000000 0.000000
vn 0.000000 0.000000 1.000000
vn 0.000000 0.000000 1.000000
vn 0.000000 0.000000 1.000000
vn 0.000000 0.000000 1.000000
vn 0.000000 1.000000 0.000000
vn 0.000000 1.000000 0.000000
vn 0.000000 1.000000 0.000000
vn 0.000000 1.000000 0.000000
vn 0.000000 0.000000 -1.000000
vn 0.000000 0.000000 -1.000000
vn 0.000000 0.000000 -1.000000
vn 0.000000 0.000000 -1.000000
vn 0.000000 -1.000000 0.000000
vn 0.000000 -1.000000 0.000000
vn 0.000000 -1.000000 0.000000
vn 0.000000 -1.000000 0.000000
vn 1.000000 0.000000 0.000000
vn 1.000000 0.000000 0.000000
vn 1.000000 0.000000 0.000000
vn 1.000000 0.000000 0.000000
vn -1.000000 0.000000 0.000000
vn -1.000000 0.000000 0.000000
vn -1.000000 0.000000 0.000000
vn -1.000000 0.000000 0.000000
s off
g Table
usemtl lambert1SG
f 113/173/321 114/174/322 116/175/323 115/176/324
f 115/176/325 116/175/326 118/177/327 117/178/328
f 117/178/329 118/177/330 120/179/331 119/180/332
f 119/181/333 120/182/334 114/183/335 113/184/336
f 114/174/337 120/179/338 118/177/339 116/175/340
f 119/180/341 113/173/342 115/176/343 117/178/344
f 121/185/345 122/186/346 124/187/347 123/188/348
usemtl lambert2SG
f 123//349 124//350 126//351 125//352
usemtl lambert1SG
f 125/189/353 126/190/354 128/191/355 127/192/356
f 127/192/357 128/191/358 122/186/359 121/185/360
f 122/186/361 128/191/362 126/190/363 124/187/364
f 127/192/365 121/185/366 123/188/367 125/189/368
